<?xml version="1.0" standalone="no"?>
<!DOCTYPE svg PUBLIC "-//W3C//DTD SVG 20010904//EN"
 "http://www.w3.org/TR/2001/REC-SVG-20010904/DTD/svg10.dtd">
<svg version="1.0" xmlns="http://www.w3.org/2000/svg"
 width="350.000000pt" height="350.000000pt" viewBox="0 0 350.000000 350.000000"
 preserveAspectRatio="xMidYMid meet">

<g transform="translate(0.000000,350.000000) scale(0.100000,-0.100000)"
fill="#000000" stroke="none">
<path d="M545 2944 c-21 -7 -45 -20 -54 -30 -10 -11 -11 -14 -2 -9 9 5 12 3 9
-6 -3 -8 -11 -14 -19 -14 -21 0 -24 -80 -4 -111 27 -41 56 -52 190 -69 87 -11
141 -23 163 -36 19 -10 38 -17 43 -13 5 3 9 2 7 -3 -1 -4 6 -24 15 -43 9 -19
71 -228 137 -465 66 -236 132 -467 146 -513 l25 -82 -19 -43 c-11 -23 -39 -69
-64 -102 -64 -85 -69 -99 -70 -170 -2 -84 34 -146 109 -190 29 -16 55 -36 58
-44 3 -8 -9 -41 -26 -74 -27 -52 -31 -68 -27 -118 9 -121 95 -203 213 -203
172 1 271 161 200 324 -15 36 -20 58 -14 65 11 11 584 14 611 3 15 -6 14 -13
-10 -81 -24 -68 -25 -77 -13 -129 24 -111 101 -178 204 -178 172 0 280 182
196 328 -29 50 -25 72 12 72 55 0 119 22 139 48 42 53 9 151 -52 152 -13 1
-321 2 -685 3 -712 2 -703 1 -673 51 8 13 35 45 59 72 l45 48 110 8 c61 4 322
22 581 38 259 17 490 35 513 41 94 21 174 75 221 148 27 41 47 108 117 391 46
188 84 355 84 371 0 35 -20 77 -49 103 -27 25 -110 29 -1136 61 -259 8 -514
18 -567 21 -62 4 -98 3 -98 -3 0 -10 109 -16 675 -33 646 -20 952 -30 1023
-36 69 -5 75 -8 93 -37 10 -18 19 -49 19 -69 0 -36 -150 -658 -171 -711 -23
-54 -67 -104 -113 -125 -25 -12 -51 -22 -58 -22 -7 0 5 9 27 19 40 18 86 59
52 45 -9 -3 -32 -1 -52 6 -26 8 -44 9 -66 1 -16 -5 -27 -6 -24 -1 10 17 -108
22 -233 10 -134 -13 -156 -14 -404 -25 l-156 -7 -18 27 -17 26 -22 -27 c-17
-21 -34 -29 -76 -35 -65 -9 -231 -11 -253 -3 -8 3 -25 35 -36 70 -23 67 -31
79 -119 175 -33 36 -57 55 -61 48 -4 -6 -9 -1 -12 13 -11 51 -231 804 -239
820 -17 31 -68 49 -208 73 -75 13 -144 26 -154 30 -27 11 -49 60 -38 87 15 40
38 52 100 50 92 -3 291 -40 347 -66 63 -29 94 -76 133 -203 15 -48 32 -88 38
-90 14 -5 -32 139 -65 203 -45 88 -121 127 -297 154 -184 28 -199 29 -240 14z
m-22 -159 c13 -19 15 -25 4 -25 -17 0 -37 20 -37 37 0 20 13 15 33 -12z m388
-117 c19 -36 4 -38 -23 -4 -24 30 -25 33 -7 29 11 -3 24 -14 30 -25z m198
-688 c0 -9 -4 -8 -9 5 -5 11 -9 27 -9 35 0 9 4 8 9 -5 5 -11 9 -27 9 -35z m66
-223 c31 -109 54 -201 51 -204 -3 -3 -8 0 -11 8 -9 27 -105 384 -105 393 0 24
13 -14 65 -197z m75 -507 c0 -5 10 -18 22 -30 21 -20 31 -20 700 -20 l678 0
20 -32 c24 -40 25 -58 5 -84 -15 -18 -15 -18 -10 6 4 14 0 33 -9 45 -14 20
-29 20 -694 25 l-680 5 -26 24 c-25 24 -36 71 -16 71 6 0 10 -4 10 -10z m-123
-146 c-10 -11 -48 48 -53 82 l-5 39 31 -59 c17 -32 30 -60 27 -62z m353 -83
c19 -5 27 -9 17 -10 -15 -1 -11 -8 17 -34 19 -19 40 -46 46 -61 12 -32 12
-112 0 -141 -6 -14 -8 -5 -7 30 2 161 -180 248 -289 138 l-36 -36 23 42 c13
24 34 48 46 53 12 6 21 14 18 17 -6 10 126 12 165 2z m980 0 c-24 -7 -24 -7
13 -30 21 -13 44 -33 51 -45 19 -29 28 -118 17 -147 -8 -20 -10 -16 -10 27 -1
59 -27 106 -80 141 -63 43 -169 22 -221 -44 -20 -25 -19 -23 3 17 39 72 75 90
171 89 48 -1 71 -4 56 -8z m-1260 -229 c0 -9 11 -37 25 -61 29 -50 30 -52 10
-45 -8 3 -23 25 -35 48 -21 44 -27 92 -10 81 6 -3 10 -14 10 -23z m1006 -45
c13 -28 18 -47 11 -45 -18 6 -60 95 -51 110 6 9 9 9 12 -2 3 -8 15 -37 28 -63z"/>
<path d="M1200 2379 c0 -21 78 -310 85 -318 4 -3 97 -7 207 -9 l201 -4 -7 84
c-21 260 -13 248 -158 248 -57 0 -154 3 -215 7 -93 5 -113 4 -113 -8z m450
-55 c0 -8 -4 -12 -10 -9 -5 3 -10 10 -10 16 0 5 5 9 10 9 6 0 10 -7 10 -16z
m-49 -10 c11 -6 27 -92 33 -170 l6 -72 -93 -5 c-50 -4 -114 -5 -142 -3 -27 2
-62 5 -76 5 -30 1 -40 20 -64 121 -18 80 -19 127 -2 134 13 6 327 -3 338 -10z"/>
<path d="M1734 2356 c-8 -22 10 -283 20 -293 10 -11 409 -22 420 -11 5 4 15 3
22 -3 15 -12 19 7 34 162 11 113 8 135 -18 143 -10 3 -119 8 -244 12 -208 6
-228 5 -234 -10z m486 -46 c0 -5 -2 -10 -4 -10 -3 0 -8 5 -11 10 -3 6 -1 10 4
10 6 0 11 -4 11 -10z m-49 -17 c15 -15 15 -167 0 -207 l-11 -26 -190 0 c-151
0 -192 3 -196 14 -7 19 -20 186 -16 214 l4 23 198 -3 c141 -2 203 -7 211 -15z"/>
<path d="M2310 2344 c0 -5 -9 -69 -20 -143 -11 -74 -17 -137 -14 -142 8 -14
62 -18 276 -22 174 -3 208 -1 213 11 9 25 55 234 55 253 0 10 -8 22 -17 28
-24 12 -493 26 -493 15z m486 -61 c-10 -10 -19 5 -10 18 6 11 8 11 12 0 2 -7
1 -15 -2 -18z m-108 -4 c24 -5 47 -7 52 -4 13 8 4 -135 -11 -180 l-14 -40
-202 0 c-111 1 -205 4 -209 8 -9 9 22 218 34 226 15 9 302 2 350 -10z"/>
<path d="M1316 1978 c-11 -6 -13 -14 -7 -26 5 -9 28 -90 51 -179 41 -158 43
-162 72 -168 48 -11 287 -1 292 11 3 7 -2 83 -10 170 -12 122 -19 163 -32 175
-14 14 -46 18 -184 21 -92 3 -174 1 -182 -4z m364 -48 c0 -5 -2 -10 -4 -10 -3
0 -8 5 -11 10 -3 6 -1 10 4 10 6 0 11 -4 11 -10z m-42 -13 c15 -18 35 -268 23
-280 -5 -5 -61 -12 -124 -15 l-115 -5 -10 34 c-18 54 -62 236 -62 253 0 19 23
23 161 25 85 1 119 -3 127 -12z"/>
<path d="M1758 1970 c-4 -11 11 -285 18 -317 3 -16 14 -23 43 -28 50 -8 344
13 351 26 4 5 12 73 19 152 16 189 32 177 -229 177 -121 0 -200 -4 -202 -10z
m374 -175 c-2 -66 -8 -124 -12 -129 -9 -9 -307 -32 -315 -24 -7 7 -24 250 -18
265 5 11 39 13 177 11 l171 -3 -3 -120z"/>
<path d="M2267 1963 c-8 -15 -40 -282 -35 -295 12 -31 324 -14 402 22 41 18
47 25 60 73 8 28 20 80 27 114 18 96 26 93 -232 93 -120 0 -220 -3 -222 -7z
m316 -50 c81 -7 86 -17 66 -119 -19 -98 -42 -108 -254 -120 l-135 -7 0 39 c0
37 14 142 25 192 5 21 9 22 118 22 61 0 142 -3 180 -7z"/>
<path d="M2548 1623 c7 -3 16 -2 19 1 4 3 -2 6 -13 5 -11 0 -14 -3 -6 -6z"/>
</g>
</svg>
